<?xml version="1.0" encoding="UTF-8" standalone="no"?>
<svg
   id="es7GXhwWoTy1"
   viewBox="0 0 1024 1024"
   shape-rendering="geometricPrecision"
   text-rendering="geometricPrecision"
   project-id="2701bc8deaad43faaab0ea72d2d105b3"
   export-id="2d2f464266a54e0d8f549605cf9d4fd4"
   cached="false"
   version="1.1"
   sodipodi:docname="yolk2.svg"
   inkscape:version="1.4 (e7c3feb1, 2024-10-09)"
   xmlns:inkscape="http://www.inkscape.org/namespaces/inkscape"
   xmlns:sodipodi="http://sodipodi.sourceforge.net/DTD/sodipodi-0.dtd"
   xmlns:xlink="http://www.w3.org/1999/xlink"
   xmlns="http://www.w3.org/2000/svg"
   xmlns:svg="http://www.w3.org/2000/svg">
  <defs
     id="defs1">
    <linearGradient
       id="swatch17"
       inkscape:swatch="solid">
      <stop
         style="stop-color:#e09f28;stop-opacity:1;"
         offset="0"
         id="stop17" />
    </linearGradient>
    <linearGradient
       id="swatch10"
       inkscape:swatch="solid">
      <stop
         style="stop-color:#ffffff;stop-opacity:1;"
         offset="0"
         id="stop10" />
    </linearGradient>
    <linearGradient
       id="linearGradient7"
       inkscape:collect="always">
      <stop
         style="stop-color:#000000;stop-opacity:1;"
         offset="0.03087886"
         id="stop8" />
      <stop
         style="stop-color:#000000;stop-opacity:0;"
         offset="1"
         id="stop9" />
    </linearGradient>
    <linearGradient
       id="swatch7">
      <stop
         style="stop-color:#ffffff;stop-opacity:1;"
         offset="0"
         id="stop7" />
    </linearGradient>
    <linearGradient
       id="swatch6"
       inkscape:swatch="solid">
      <stop
         style="stop-color:#ffffff;stop-opacity:1;"
         offset="0"
         id="stop6" />
    </linearGradient>
    <linearGradient
       inkscape:collect="always"
       xlink:href="#linearGradient7"
       id="linearGradient9"
       x1="291.68871"
       y1="264.92174"
       x2="732.31129"
       y2="264.92174"
       gradientUnits="userSpaceOnUse" />
    <linearGradient
       inkscape:collect="always"
       xlink:href="#swatch10"
       id="linearGradient10"
       x1="293.41998"
       y1="585.85999"
       x2="731.8111"
       y2="585.85999"
       gradientUnits="userSpaceOnUse" />
  </defs>
  <sodipodi:namedview
     id="namedview1"
     pagecolor="#ffffff"
     bordercolor="#000000"
     borderopacity="0.25"
     inkscape:showpageshadow="2"
     inkscape:pageopacity="0.0"
     inkscape:pagecheckerboard="0"
     inkscape:deskcolor="#d1d1d1"
     showguides="true"
     inkscape:zoom="0.63589375"
     inkscape:cx="303.50982"
     inkscape:cy="536.2531"
     inkscape:window-width="1440"
     inkscape:window-height="771"
     inkscape:window-x="0"
     inkscape:window-y="25"
     inkscape:window-maximized="0"
     inkscape:current-layer="es7GXhwWoTy1" />
  <g
     id="symmetrical_handle"
     style="fill:url(#linearGradient9);fill-opacity:1;stroke:#ffffff;stroke-opacity:1;stroke-width:3;stroke-dasharray:none">
    <path
       style="display:inline;fill:url(#linearGradient9);fill-opacity:1;stroke-width:3;stroke:#ffffff;stroke-opacity:1;stroke-dasharray:none"
       d="m 423.83708,135.41232 c 22.59952,-3.4706 62.89765,-6.56979 90.15817,-6.5659 29.18223,0.004 69.97905,4.04109 89.55035,7.75392 21.33835,4.04805 39.53361,9.89738 53.06047,15.98469 12.90144,5.80586 21.4527,10.88326 26.57188,14.73997 9.63506,7.2589 15.54986,11.34112 22.0233,19.20679 8.67801,10.54434 16.65095,24.69318 19.65458,31.69292 5.04063,12.40516 7.41831,31.61533 7.45515,46.0867 0.036,14.13713 -3.02792,31.92005 -7.7794,48.33474 -4.14287,14.31217 -8.26923,28.1638 -12.98361,40.36043 -8.62779,22.32109 -19.85688,47.83251 -19.85688,47.83251 l -48.32873,-58.01441 c 0,0 11.86519,-23.55274 15.81384,-39.03246 3.64752,-14.29923 3.47411,-33.97285 1.835,-44.14151 -0.99245,-6.15696 -3.27193,-13.92177 -6.39155,-20.46224 -2.65019,-5.55629 -7.58504,-10.85493 -15.86163,-16.82301 -5.74714,-4.14414 -11.64918,-6.21471 -17.48691,-8.5402 -17.19304,-6.84893 -31.51138,-9.48916 -53.30787,-12.32836 -14.79478,-1.92716 -25.11029,-2.16133 -63.13654,-1.93415 -21.56175,0.12881 -44.90466,1.74435 -66.57933,5.68429 -19.85608,3.60936 -32.93307,5.5834 -47.33711,13.73822 -4.48967,2.54182 -8.24742,5.12392 -15.30147,12.27387 -7.05405,7.14995 -13.18601,18.30864 -13.44576,39.32812 -0.17747,14.3617 -0.005,16.63796 1.76691,26.13746 3.51469,18.8433 16.64688,45.4303 16.64688,45.4303 l -48.18158,58.62769 c 0,0 -24.42714,-40.09488 -34.61284,-87.67386 -5.56206,-25.98126 -7.95113,-54.66764 -2.28604,-78.62108 4.04982,-17.12361 9.8008,-31.9961 19.14819,-42.71678 8.89128,-10.19756 12.64463,-17.10903 25.51208,-25.93365 19.41845,-13.31736 50.37735,-24.57367 83.68045,-30.42501 z"
       id="path1"
       sodipodi:nodetypes="ccsssscsssccssssssssssssccssssc" />
    <path
       style="display:inline;fill:url(#linearGradient9);fill-opacity:1;stroke-width:3;stroke:#ffffff;stroke-opacity:1;stroke-dasharray:none"
       transform="matrix(-1,0,0,1,1024,0)"
       d="m 423.83708,135.41232 c 22.59952,-3.4706 62.89765,-6.56979 90.15817,-6.5659 29.18223,0.004 69.97905,4.04109 89.55035,7.75392 21.33835,4.04805 39.53361,9.89738 53.06047,15.98469 12.90144,5.80586 21.4527,10.88326 26.57188,14.73997 9.63506,7.2589 15.54986,11.34112 22.0233,19.20679 8.67801,10.54434 16.65095,24.69318 19.65458,31.69292 5.04063,12.40516 7.41831,31.61533 7.45515,46.0867 0.036,14.13713 -3.02792,31.92005 -7.7794,48.33474 -4.14287,14.31217 -8.26923,28.1638 -12.98361,40.36043 -8.62779,22.32109 -19.22501,47.99048 -19.22501,47.99048 l -48.9606,-58.17238 c 0,0 11.86519,-23.55274 15.81384,-39.03246 3.64752,-14.29923 3.47411,-33.97285 1.835,-44.14151 -0.99245,-6.15696 -3.27193,-13.92177 -6.39155,-20.46224 -2.65019,-5.55629 -7.58504,-10.85493 -15.86163,-16.82301 -5.74714,-4.14414 -11.64918,-6.21471 -17.48691,-8.5402 -17.19304,-6.84893 -31.51138,-9.48916 -53.30787,-12.32836 -14.79478,-1.92716 -25.11029,-2.16133 -63.13654,-1.93415 -21.56175,0.12881 -44.90466,1.74435 -66.57933,5.68429 -19.85608,3.60936 -32.93307,5.5834 -47.33711,13.73822 -4.48967,2.54182 -8.24742,5.12392 -15.30147,12.27387 -7.05405,7.14995 -13.18601,18.30864 -13.44576,39.32812 -0.17747,14.3617 -0.005,16.63796 1.76691,26.13746 3.51469,18.8433 16.64688,45.4303 16.64688,45.4303 l -48.18158,58.62769 c 0,0 -24.42714,-40.09488 -34.61284,-87.67386 -5.56206,-25.98126 -7.95113,-54.66764 -2.28604,-78.62108 4.04982,-17.12361 9.8008,-31.9961 19.14819,-42.71678 8.89128,-10.19756 12.64463,-17.10903 25.51208,-25.93365 19.41845,-13.31736 50.37735,-24.57367 83.68045,-30.42501 z"
       id="path2" />
  </g>
  <path
     id="path3"
     style="fill:#e09f28;fill-opacity:1;stroke-width:6;stroke-dasharray:none;stroke:url(#linearGradient10);stroke-opacity:1;stroke-linejoin:round;stroke-linecap:square;paint-order:markers stroke fill;stroke-dashoffset:5.9000001"
     d="M 729.31356,610.71221 C 749.35732,799.38169 614.50421,873.8427 510.34905,873.8427 c -104.15516,0 -234.4473,-77.21585 -214.36225,-264.05095 15.53773,-144.53505 110.20709,-311.91444 214.36225,-311.91444 104.15516,0 202.48421,157.70791 218.96451,312.8349 z" />
</svg>
